<svg width="26" height="26" viewBox="0 0 26 26" fill="none" xmlns="http://www.w3.org/2000/svg">
<path d="M10.8333 22.7493H15.1667C15.1667 23.941 14.1917 24.916 13 24.916C11.8083 24.916 10.8333 23.941 10.8333 22.7493ZM22.75 20.5827V21.666H3.25V20.5827L5.41667 18.416V11.916C5.41667 8.55768 7.58333 5.63268 10.8333 4.65768V4.33268C10.8333 3.14102 11.8083 2.16602 13 2.16602C14.1917 2.16602 15.1667 3.14102 15.1667 4.33268V4.65768C18.4167 5.63268 20.5833 8.55768 20.5833 11.916V18.416L22.75 20.5827ZM18.4167 11.916C18.4167 8.88268 16.0333 6.49935 13 6.49935C9.96667 6.49935 7.58333 8.88268 7.58333 11.916V19.4993H18.4167V11.916Z" fill="black"/>
</svg>
