<svg width="26" height="26" viewBox="0 0 26 26" fill="none" xmlns="http://www.w3.org/2000/svg">
<path d="M17.0176 13.7686C18.0797 12.933 18.8549 11.7871 19.2354 10.4904C19.6159 9.19365 19.5828 7.81056 19.1407 6.53353C18.6985 5.2565 17.8694 4.14903 16.7685 3.3652C15.6676 2.58137 14.3498 2.16016 12.9984 2.16016C11.647 2.16016 10.3292 2.58137 9.22833 3.3652C8.12747 4.14903 7.29828 5.2565 6.85614 6.53353C6.414 7.81056 6.38088 9.19365 6.7614 10.4904C7.14192 11.7871 7.91715 12.933 8.97924 13.7686C7.15933 14.4977 5.57139 15.7071 4.38471 17.2677C3.19803 18.8283 2.4571 20.6817 2.24091 22.6303C2.22526 22.7725 2.23779 22.9165 2.27777 23.0539C2.31775 23.1913 2.38442 23.3196 2.47395 23.4312C2.65476 23.6567 2.91776 23.8012 3.20508 23.8328C3.49239 23.8644 3.7805 23.7806 4.00601 23.5997C4.23152 23.4189 4.37597 23.1559 4.40758 22.8686C4.64546 20.7509 5.65524 18.7951 7.24398 17.3748C8.83272 15.9545 10.889 15.1694 13.0201 15.1694C15.1511 15.1694 17.2074 15.9545 18.7962 17.3748C20.3849 18.7951 21.3947 20.7509 21.6326 22.8686C21.662 23.1348 21.789 23.3807 21.9891 23.5587C22.1892 23.7368 22.4481 23.8344 22.7159 23.8328H22.8351C23.1191 23.8001 23.3786 23.6565 23.5572 23.4333C23.7358 23.2101 23.8189 22.9253 23.7884 22.6411C23.5712 20.687 22.8263 18.8288 21.6335 17.2658C20.4407 15.7028 18.8451 14.4939 17.0176 13.7686ZM12.9984 12.9994C12.1414 12.9994 11.3036 12.7453 10.5909 12.2691C9.87833 11.793 9.32291 11.1162 8.99493 10.3244C8.66695 9.53259 8.58114 8.6613 8.74834 7.82072C8.91554 6.98013 9.32825 6.20801 9.93428 5.60198C10.5403 4.99595 11.3124 4.58324 12.153 4.41604C12.9936 4.24884 13.8649 4.33465 14.6567 4.66263C15.4485 4.99061 16.1253 5.54603 16.6014 6.25864C17.0776 6.97125 17.3317 7.80906 17.3317 8.66611C17.3317 9.81538 16.8752 10.9176 16.0625 11.7302C15.2499 12.5429 14.1477 12.9994 12.9984 12.9994Z" fill="black"/>
</svg>
